<mxfile host="app.diagrams.net" modified="2024-03-01T19:43:09.471Z" agent="Mozilla/5.0 (Windows NT 10.0; Win64; x64; rv:123.0) Gecko/20100101 Firefox/123.0" etag="1q9-2myInlcJOKGv06kx" version="23.1.2" type="device">
  <diagram name="PÃ¡gina-1" id="m25TAuS7Qa78AsLCwRbl">
    <mxGraphModel dx="2021" dy="716" grid="1" gridSize="10" guides="1" tooltips="1" connect="1" arrows="1" fold="1" page="1" pageScale="1" pageWidth="827" pageHeight="1169" math="0" shadow="0">
      <root>
        <mxCell id="0" />
        <mxCell id="1" parent="0" />
        <mxCell id="UDwby6lAQDXfC08D9vF1-23" value="" style="shape=image;verticalLabelPosition=bottom;labelBackgroundColor=default;verticalAlign=top;aspect=fixed;imageAspect=0;image=data:image/png,iVBORw0KGgoAAAANSUhEUgAAAgAAAAIACAYAAAD0eNT6AAAACXBIWXMAAHYcAAB2HAGnwnjqAAAAGXRFWHRTb2Z0d2FyZQB3d3cuaW5rc2NhcGUub3Jnm+48GgAAIABJREFUeJzs3XeUlEXWx/Fvp8mRnMOQcxAQkCBiQhEDZsw567rqGtawuoZds645J3R1FQMKBtRFiaJkyTmnYRiY2NPd7x/N7quuwMxUPf10z/w+5/ThHI/PrSvI1O16qm6BiIiIiIiIiIiIiIiIiIiIiIiIiIiIiIiIiIiIiIiIiIiIiIiIiIiIiIiIiIiIiIiIiIiIiIiIiIiIiIiIiIiIiIiIiIiIiIiIiIiIiIiIiIiIiIiIiIiIiIiIiIiIiIiIiIiIiIiIiIiIiIiIiIiIiIiIiIiIiIiIiIiIiIiIiIiIiIiIiIiIiIiIiIiIiIiIiIiIiIiIiIiIiIiIiIiIiIiIiIiIiIiIiIiIiIiIiIiIiIiIiIiIiIiIiIiIiIiIiIiIiIiIiIiIiIiIiIiIiIiIiIiIiIiIiIiIiIiIiIiIiIiIiIiIiIiIiIiIiIiIiIiIiIiIiIiIiIiIiIiIiIiIiIiIiIiIiIiIiIiIiIiIiIiIiIiIiIiIiIiIiIiIiIiIiIiIiIiIiIiIiIiIiIiIiIiIiIiIiIiIiIiIiIiIiIiIiIiIiIiIiIiIiIiIiIiIiIiIiIiIiIiISM3ncTsBERFDHqAZ0Hbvr42AxkADoCGQA2Ts/aQDqUDKb2IUA2XAHiAI7AC27/3sALYCa/Z+VgGbgIiD/00ijlMBICKJwgvkAT2BHkA3oN3ef/bbCd1pZcByYCGwYO+v8/f+MxUGkhBUAIhIvKoDDAAGAocABxH9Fh/PCoAZv/hMA3a6mpHIPqgAEJF4kQYMAY7c++lM4v+MCgE/AZP2fqYAJa5mJCIiEgeaAlcBXxKdGCM1/FMMfAxcCNS38PsnIiKSMFoANwHTgTDuT8pufSqAycC1RDcrioiI1DgpwCnAJ0QnPrcn33j7VBBdBTmH+N/nICIickC9gBeA3bg/ySbKZxfwFNClGr/fIiIirkkGxgBTcX8yTfTPt8BpQKAqfwAiIiKxlEH0ffY63J84a9pn9d7f2/TK/mGIiIg4rQFwL9Hz7m5PlDX9sw24k2iPBBEREVdkAn8i+s7a7Ymxtn12Aw8A2Qf8UxIREbEkHbgFyMf9ibC2f7YCfyD2rZBFRKQW8RA9yrca9yc+fX79WUf0CGGid04UEZE40xv4DvcnOn32//mG6EVJIiIiRrKBZ4j2tHd7ctOncp8K4HHUUEgOQMtFIrIvJwFPAk3cTqQyGjRpRtNWrWnYtDmNmrWgQdOm5NatT2ZuHbJycsnMziE5NRWfz09axq/nxuI9ewiFKtizq4Ci3bsp2l1IQf4Otm/ayI6tm9m2aSMb16xi3crl7Ny+zaX/wipbA1wOTHA7EYlPKgBE5LcaAs8CJ7idyO9Jy8igXdcedOjeiw7de9KyXQdatGlPanpsjsgXFRayduUyli+cx9L5c1m2YB4rfl5AaUlxTMavhreA64Dtbici8UUFgIj80vFEW/fGzU11dRo0pGf/Q+jRfxA9BwyiVfuOeL1et9P6lYpgkKXz5zD/h+nMnT6VeTOmsGtnvttp/dIm4Hzgc7cTkfihAkBEIPq++FHgIrcT8fp8dO7dh4HDj6b/4UfRtnM3PJ7E+lEVDoVYNOdHpn/9JTO++ZIlc38iHA67nVaE6CudPwGlLucicSCx/laJiBO6A/8C2rmVgNfno2f/Qxg26iSGHnM8ufXiZgHCim2bNvDt+I/4dvw4Fsya4XYxsJDocc5FbiYh7lMBIFK7nQc8DaS6MXjrDp049oxzOOKk06hTv4EbKcTctk0bmPjuWCa8+xbrVi53K409RFd7/ulWAuI+FQAitVMK8A/gwlgPnJySyhEnncpxY86jc+++sR4+bkQiEeb/MJ2PXn+Jbz7+gGCw3I00HgduBIJuDC7uUgEgUvs0Aj4EDo7loA2aNOPE8y7muDHnkV2nbiyHjnv5W7fw0Rsv8eHrL5G/dUush58MjEanBGodFQAitUs34BOgZawGbNyiFadcdAUnnHshgaTkWA2bkILBciZ9+C9ee+xvrF+5IpZDrwRGon0BtYoKAJHaYxTRM+Ex6RDXok07zrv+FoYfPxqvzxeLIWuMimCQL8e9y6uPPMDGNatiNWwB0c2BX8VqQHGXCgCR2uFioi19HZ+J6zdqwvk33MIxp52Nz+93ergaLRgs5+M3XuH1x/5G/ratMRkSuAB4MxaDibtUAIjUfLcB9+Dw3/eUtHTOvuaPnHbp1SSnuHKooMYqKSrirX88wtvPPE55meNH+MNEOwc+6fRA4i6ty4nUXB6iu7xvweHJf/jxo3ngtX8y8IgR+P0BJ4eqlQJJSfQeNJQjTjyFTWvXsG7FMieH8wAj9v76rZMDibu0AiBSM3mA54gu/TumaavW3Pj3Jzlo8KFODiO/MeWLz3j45j+wbdMGp4d6iOgxQamBtAIgUvN4iJ7xv8ypAbxeL8eNOZ/7Xn6HFm3bOzWM7EOLNu0YeeZ5lJYUs3jOT0QiEaeGGghkAV84NYC4RysAIjWL49/8m7Zqze3/eIkuB/Vzagipgp++/zd/veYSp1cD/gbc7OQAEnsqAERqlieAq50KfszpZ3PtPQ+SlhGTk4RV5vVAis9Lis9Dit9Lqs9Dss+LzwM+jwefB7x7f/V5PYQjUBYKU1AeYnNxBcUVrl/YUy2FBTt58Mar+Xb8h04Oczdwp5MDSGypABCpOW4n+kPaurSMDG566CmGHz/aifDV4vVAZsBHVsBLZpKPdL+XZF/1f6RFgM3FQVbuLse5FXVnjX/rVR697QYnTwpcBTzlVHCJLRUAIjXDZUTP+VvXsm177nnxLVp36ORE+ErzeiAnyUd2ko+sJB8ZAa8jP8AKykMs3FmasEXAsoXzuP2iMWxY7UgDoQjRC6RedyK4xJYKAJHEdxLwHuC1HXj4CSdz88NPkZKWbjt0pXg9UCfZT90UH3WSffg8sfmRtak4yIpCVy7nsWL3rgLuvuICpn/tyN69cuAYYJITwSV2dApAJLH1Itrb32qTfY/Hw5irruf6+x+Nef9+D1AvxU+LjADtslOon+on3e/FG6PJHyAj4GNHaYhgODGXAZJTUjj8hJMJlpczf+Y02+F9wAlE/7/bZju4xI4KAJHE1QT4GqhnM2hScgq3P/kip15yJZ4YTroBr4cmaQE65KTQKM1Pmt9LDIf/FQ8QjkRfByQqj9dLnyHDyK1Xn5n/nkQkbHWDYzJwBNG7JUpsBpbYUQEgkphSgc8Bqy/m07OyePDN9xl4xNE2w+5XRsBLy8wk2mUnk5vsw++NjzeTfq+HTcUVbqdhrFPPg2jXtTvfTRxPqMLqf09doA/wNtH2wZJgVACIJKYXgGNtBqxTvwGPvTeeLr372gy7T5kBLx1ykmmVmRTd0Bcf8/5/eT2wvijodhpWtGjTjh4DBvHvzz4iWFZmM3QekEm0GJUEE2d/5USkEi4iWgBY07Bpcx5771Oatc6zGfZ3pfq9tMwIUC8lvm8KDEUiTNtSbDVmut9LwzQ/OUk+kn3RPZux7EOwbOE8rj9tFAU7ttsMGyF6jfD7NoOK81QAiCSW7sB0oq8ArGjQpBlPvD+Bpq1a2wr5u5K8HppnBGiUFkiIHzzFFWF+2m7n9bbXA60zk2ictu+LkmLVh2DN8qVcM3oE+Vu32Ay7B+gLLLYZVJyVCH8PRSQqC/gJaGMrYMOmzXnygwk0btHKVsj/4QGapAdokRGI2TE+GzYUBVm12/wooNcDXXJTyE6q3BvXWPQhWLloIdeecqztlYB5wMGA4/cVix3Wzw2LiGOewOLkX6dBQx5771NHJ/80v5fudVNpnZmUUJN/BNhSYmfDXF5mcqUnf4g2O8rLTLIy9r7kderCI//8mPSsLJthuwP32wwozlIBIJIYTgDOtRUsPTOTh976wLF3/h6gWXqAnnVTyQwk3o+ZTcVBK+/j0/1eGqVVfa9Do7QAaX5nf9/adenOQ2+Ns93k6VpghM2A4hydAhCJf42ACUCajWDJKak8OHYcnR3a7Z/m99I5N4WGqf6429lfGQXlIZYW2Nkp3zwjQGag6j9mY9WHoEGTZuR17My34z+01SfAAwwFXkWvAuKeCgCR+Pc20NNGII/Hw5//8SIDhh9lI9z/aJDqp3NuCikGl/K4JUL0m//SgjJsvX5vnZlEoJp9DWLVh6BF2/Zk5uTabBucBTQDPrAVUJyhAkAkvp0O3Gor2IU33sZJ519iK9x/eT3QJjuZlhlJCfWtPxSJUBqKsLWkguWF5Wy19N7/P1plJlW7hXEs+xB07tWHwp07WDT7R1shuwM/AkttBRT7Euivqsh+ZRHdIJcHNCfaHrce0IBox7J6RI/O5fzimUzgPy9oC4AQsAsIEj3WVAhsBLYCG4AtwCZg9d6P031ic4Gfib4CMHb4iadwx1MvW2/vG/B66JybEjfv+iMRKAmFKQ1FKKmI/loaChMMRwhFIByJ/hoKR6x909+XAQ3Tqr350Yk+BPsdr6KCm84+mZnffmUr5GqgK1BkK6DYpQJAEk19ohfg9Cb6LSOP6MRvtR9+JZQDy4mee14KLAHmAAsAW18jnwcuthEor1MXnvv0G1JSrWwj+K//vO93c8k/FImwOximsDxMYXmIwmCIeLnDp3e91Gpv5rPZh6CyCgt2cuGRg9i8bo2tkI8Af7QVTOxSASDxLAXoDwwBDiI68Td3NaMDKya69DkTmLH3s7YacQ4BvsPC39H0rCxenPAdzfKsnSAEoj38u+amuNK7vyQUZkdpiO2lFewJxm8b+rysJJrsp/nP/tjqQ1BVS+bN5opRR1BeZmUPX4jo39v5NoKJXSoAJJ4EiDYSGQYcCgzAYsc7F60Evtj7+Zroa4b98RItHPrYGPyvL41l6DGjbIT6L7/XQ6+6qSTH8Jt/2d539dtLKyhyuGWuLWl+L73qpVb5B20EmL29xPHWwPvy0Rsv8dBN19oK9zUw3FYwsUcFgLgtAzgGOHHvr1Y7k8ShCqKT++dEd0kv/J1/5xzgNRuDjTrrAm588AkboX6lVWYSzdKr9822qgrLQ2wsrmBHaYXj7+yd0CZr/y2Af8/G4iArC2P/7f+XbrvgTCZP+NhWuJOAcbaCiR0qAMQNuUQb25xI9E7xFHfTcdUC4F3gn0T3EqQT3U/Q1DRw87y2vPzlFNuNXvAA/RqkVft4W2VtK6lgQ3Ewrpf4K8OztxVwTlVaAeeXul7s7NqZz3mHHcz2zZtshFsJdEG9AeKKCgCJFS9wOHA+0cm/Nk/6+zKH6KmDY0wD+fx+nvlkEp16HmSe1W9kBLz0rOvcm5mdZSFW7y5PmGX+yvB4IC8zab8XIf2nD8GqwnLXJ///+OHfX/PHM44nYudiguuBR20EEjvUB0Cclgf8gWhnsCuJHguK73tg3dMIaGcj0JlXXMeIU8fYCPU/MpN81HfgKt89wTBLd5WxrihIMF628Vu0syzEjtLoCQW/14PXE530nexDYKppq9Zs3bSRpfPn2AjXC3iW6AkaiQNaARCnDAKuIfruT4VmDDXPa8srk6aRnOLMt/S6KX465SRbixeKRFi9O8im4tg0vZGqKdq9m7OH9mHbpg02wt0O/NVGIDEXH507pKbwA6cBPxA9wnYKmvxjyuPx8KeHn3Js8gcoC9lbmi8oDzF7e4km/ziWnpnJ9fc9bCvcDUAdW8HEjAoAsSEJuIpoY5x3sHR8TaruqJPPoEf/QxwdoygYNl6iD0VgRWE5C/JLKQ3VvOX+mmbQ0SMZcPjRNkJlA1fbCCTm9ApATHiB0UTvALfbZUaqLC0jg7e+m029Ro0dH6tlRhLNM6p3DLA0FGHRztIatcmvNtiwehXnHNrXRoOgfKAl0Xbb4iItz0p1eIBTgX8Bl6Mlvbhw4Y1/pv9hR8ZkrD3BMA1S/VXuAlhQHmLBzlLK9K0/4WTl5FJWUsy8GVNNQ6UC24Dp5lmJCa0ASFUdAjxBtBe/xIlGzVsy9vufCCTZ25x3IOkBL92q0Ap4Q1GQ1bvj54ibVF3R7t2cPqAbBTu2m4ZaR3TVUJs/XKQVAKmsOsADwDNAE5dzkd+47t6HaN+tZ0zHDIYj7CgLkRXwkbSflsDBcISlu8rYGIO77cVZScnJBAJJzPjmS9NQ2URvulxgnpVUl1YA5EC8wFlEb/Wq63Iu8jvyOnbmla+m4fW5V8/XS/FTP8VPZpKXgNdDRThCcUWY/LIQm4srCNlpJCNxIBgs5+whB7Fh9SrTUN8Dgy2kJNWkAkD2pxfwMhDbr5bVlJySSos27WjRth31Gzclp249curWIzu3Dtl165GVW4ecOnX3O1Hu2VVAwY7tFOTvoHBnPrt25rNrxw52bN3M2uVLWbt8Kbt25sfwv+rA7n15LENG2L3sR2R/Pn37dR64/goboXoA82wEkqpTASC/xw/cQrRpR2xufKkCr89HXsfOdOndjxbt2tOybXtatGlHw2Yt8HqdP9m6K38Ha/YWA2tXLGPZgrks/HEmJUVFjo/9W607dOK1b2bi8eivssRORTDIGQN7sHl9dW66/pXngUstpCTVoJ8a8ludid5EFzdn+VNS0+jYszc9Dj6Ebv3607VPf9IzM91O61dCFRUsXTCX+TOnMWfaFOb/MM3GRqkD+vOTL3DUyWc4Po7Ib4179QUeueUPpmH2EG2BHfvqWVQAyH95iV7WcQ9xcFFP4xatGDLiOAaPOI4uvfviD8TdQsQBrVm+lKlfTmDyZx/z808/EA7bPffeqFkL3p46NyF/byTxlZeVckrfzuRv22oa6mzgTQspSRWpABCIbu57AxjhZhJ5nbowZMQohhxzHO26dHczFeu2bd7I5M8+YfJnHzFn+hTCoZBxzFsfe5YRp51lITuR6nn5oft45eH7TMN8CcSmgYX8igoA6Qu8R7QzV8zVadCQY884h2NOPYtmebWjmeCu/B18++mHfPT6yyxbMLdaMXoNHMxj730akz0PIvuSv3ULJ/fpRDBodMFfiOjPHyu3DUnlqQCo3S4nej937LrHEL2w5qDBh3L82Rcy6Khja/US9oJZM/jwtRf55pNxlW6x2rZLNx7/12dk5eQ6nJ3Igd1z1UV88f47pmH+SPSoscSQCoDaKRl4gei7t5jJysnl2DPPZdRZF9CsdV4sh457u/J38Onbr/PRGy+zcc3vn6/2BwIcN+Y8rrjjXlJS02Kcocjvmzt9CledeJRpmClErxCXGFIBUPvUBcYRwwYcWTm5nHrpVZx84RVxt3s/3oTDYeZOn8J3Ez9hzdIllJYUk5Vbh+79BnDoyBNo3KKV2ymK/EokEuHMQT1Zv3KFSZgw0AzYZCcrqQwVALVLHvAp0DEWg6VnZnLCuRdz1tV/JCMrOxZDiogL3njiIZ6//y7TMFcQbTUuMaICoPYYAHwE1Hd6oMzsHE677Gp94xepJbZt2sDJfTqZHnX9AjB+lyCVpy3EtcPxwCQcnvy9Xi/HnnEOY6fM4dzr/qTJX6SWqN+4KV37HGwaZgjRq4IlRlQA1HynED3m5+hfrHZde/DUh19w8yNPk1O3npNDiUgcGnbcSaYhUtDlQDGlAqBmOxMYi4P9/LNycvnj3x7jxYmT6dq3v1PDiEicO3TkCTb6UqghUAypAKi5zgVeJ3qxjyOGHz+asVPmcMI5F7l6Fa2IuK9eo8Z06N7LNIwKgBhSAVAzXUj0Gl9HZuX0zExue+J57nr2NbLr1HViCBFJQP2HG+/h6wrUsZCKVIK+ttU8JxDt6+/In22nXn14+O2P6X3IECfCOy7d76V5RoDWmUm0ykymeUYSDVL9pPq9lIUiBMMRt1MUSVjJKSmMH/uaSQgP8B2wzE5Gsj86BlizDCd6zt96a1+f3885197EudfdhM/v2FsFx3g90DozicZp+94OEQE2FwdZubuciOoAkSoLh8OM6tqKXTvzTcLcD9xqKSXZD70CqDn6EO3wZ33yr1O/AU+8P4ELbrg1YSf/Lrkp+538IVoNN04L0CU3BY9KY5Eq83q9dD/4ENMwA23kIgemAqBm6AB8Blg/eN+mc1ee++xbuvcbYDt0zORlJpOdVPk3IjlJPvIykxzMSKTm6jnAuADog15Px4QKgMRXl+jkb73Jz6CjjuWZjyfRqFkL26FjJt3vpVFa1VctGqUFSPPrr4dIVfXob1wApAO1425wl+knXGLzA+8S7fFv1ckXXc69L79Nanq67dAx1bAakz9EXwc0TE281x0ibmvXpbuN2yq728hF9k8FQGJ7GDjMZsBAIIlbH3uWa+950EZTD9flVGHp/7dyk7UKKVJVXp+PNp27moZRARADif8TvvY6H7jGZsBAIIm7X3iDEaedZTOsq5J91d/NZ/KsSG3WoXtP0xDdbOQh+6c1zsR0MJavzQwkJXPvS28x4PCjbYb9Xal+L43T/GQn+UjzecEDJRVhCsvDbC4JsidodKOYiLisfTfjAqC9jTxk/1QAJJ5s4G0sHvcLJCVzzwtvOD75B7weWmYm0eh33q2n+b2k7d2wt7mkgpWFZdjoyVMWipDmr943+bKQmgGIVEer9h1NQ+QRXaHWtwEHqQBIPE8DrW0FS0lN475X3qHvUKtbCX7FQ3RXfcuMAH7vgSfjRql+0nweFu4sI2TYkaegPFTt3fw7y0JGY4vUVi3bdTANkQI0BjaYZyP7oj0AieV8ojf8WZGcksrf3viXo5N/RsBLj7qptMlKqtTk/x9ZST5aZ5mfxd9cXEF1SogIsKWkwnh8kdooIyub3HrGJ5Pb2shF9k0FQOJoDzxhK5jX6+WOp19yrKe/B2ieHqBHnVQyAtX736xRqr/az/5HcUWYzcXBKj+3qThIcYVWH0Wqq3me8fzd0kYesm8qABKDHxgLZNgKeOVd9zNkxChb4X4lxeelW90UWmYmGbfUPVD73spYubucgvLKL+cXlIdYVVhuPK5IbdagaTPTEI1s5CH7pj0AieEG4CBbwY4/+0JOvfhKW+F+pX6Kn7bZSfgsNdPPTjKvUSMRWLizlLzMJBqlBfZ5A1aE6Df/VYXl1XptICL/r0ET4wKgoY08ZN9UAMS/tsAdtoINOPxorr//EVvh/ssDtMpMomm6+Tf2X0rx2VmkikRgRWE5m4oraJjqJzfZ999z/mWhCDvLQmwpqdCyv4gl9Rs1MQ2hAsBhKgDimwd4Dki1EaxTrz7c/fzreH12O9z5vR465iQbdd2LleKKMKt2l7Nqt9uZiNRs9Ro1Ng2hAsBhKgDi23lYavWbU7ce9738to0e3b+S6vfSJTeFFIe65pWE9I1cJBFlZueYhjAOIPunAiB+1QceshHI4/Fw2xPP26jIfyUjEJ38A1U43ldVu8pUAIgkoozsbOMQNvKQfVMBEL/uBurYCHT65dfS/7AjbYT6r5wkH51yk61t9tuXzSVVP8InIu6zsAKgAsBhKgDiU2fgIiuBevflkpvvtBHqv+om++iQk4KDX/yBaBMf3QsgkphS043n70wbeci+qQ9AfHoIC8VZRlY2dz3zCv6AvZ35OUmxmfwLy0Os2l3m7CAi4pikJOPrSuxuWJL/oRWA+HMkMMJGoBsffJLGLVrZCAVAdpKPzrnOT/6bioOs2l1u5TIgEXGHP8n4i4e+oDpMBUB88WFp49+go0dy2KiTbIQCIDPgpXNusqOTf1FFmJWF5eyqQtc+EYlPgYD5XR7iLBUA8eUUoJtpkJS0dK69+28W0tkbzxfd7e/Uhr+KSIS1u4NsKg6qA59IDRExvMkT9tm0UyxRARA/PMCtNgJdfPMdNGpu5x4Nn8dD59zkKt3kVxUF5SGW7SqjLKSpX6QmKS8z3sOjAsBhKgDix4lY+PbfpnNXRp9/qYV0on/7OuQkk+a3/youHIG1e8pZX6RjfiI1UXlZqWkI/XBwmAqA+HGLaQCv18uNf38Cn9/OH2vrrCTqJNtv71sairBoZylF6rsvUmNZKACKbOQh+6YCID4cC/QxDXL8ORfS5aB+FtKBuik+mli4ive3dpWHWFxQRlBb/EVqtPIy4yu1i23kIfumAiA+3GQaICUtnfP+cLONXEj2eWiXZXyG939sKAqyereu2hWpDbQCEP9UALivGzDENMjoCy6lTgPzy7M8QIds+5v+1u4JsnaP8TcCEUkQhTvzTUOoAHCYCgD3XWkaID0rizOuuM5GLjTPCJBl8VrfCLB8VxlbSiqsxRSR+Ld98ybTENts5CH7pk5L7soGzjINctolV5Gda35vUKrfS7N0u807NPmL1E7btxgXAFtt5CH7pgLAXecB6SYBsnPrcOolV1tJpl1WktVOf8sLNfmL1FY7tmw2DbHFRh6ybyoA3HWZaYDTL7+W9EzzS7MapfmtLv2v2l3O5mJN/iK11Y6txvO3XgE4TAWAe/oBHU0CpKSmcfw5FxonEvB6aJVpb+l/U3GQDWrwI1Krbd+80TSE8TsE2T8VAO450zTAkaNPJzM7xziRFhkB/Jb6/O8qD7Fyt3b7i9R2q5ctMQ2xykYesm8qANzhJXrxj5GTzr/EOJFUv5dGlhr+lIbCLCoow/wOEBFJZLt3FZBv/gpgpY1cZN9UALhjONDEJECvgYNp07mrcSKtMpKs3LgRAZYUlFGhDn8itd7KxT+bhihDrwAcpwLAHWeYBhh9gfH+QTIDXuqm2Nn4t3p3ObuD6u0vIrBqiXEBsBrQDxSHqRFQ7AWI3vxXbfUbN2XQUccaJ9I8w87Gv4KykDb91SCb161h1dLFbFq7hk1rV7N143ryt22lcGc+u3bmU15aSjAYpLS4iJS0dBo3b0GfIcMYeeZ55HXs7Hb6EgdWL1lkGqIDUMr/3wewi2hBUA5sBtYQLRLW/OKzChUNVaICIPYGAkY7944cfZrxjX+pfq+Vm/7Ckeh5f0lM+Vu3MH/WDObPnMbiOT+yfNECigoLK/18aXERq5YsYtWSRbz/8nOccM6FXPWXBwhsItVeAAAgAElEQVQE7DaUksSyfOF8G2GS934Acn/xz/d1emoXMOM3n+02EqmpVADE3jGmAYYdZ7SAAEDzdDsb/9bsKac0pPf+iSIYLGfe9KlM//oLpn/9BauXLrYWOxwK8cErz7N62RIeGjtORUAtFSwvY9Gcn9wYOhs4cu/nPxYDnwDjiBYEWiH4Bbs3vkhlzAeqvXuvaavWvDPNrLpO9nnoUy8N05N/RRVh5mwv0e1+cS4cCjHr+2/5+qP3+W7CJxQW7HR8zNEXXMp19z7s+DgSf+bNnMaVxx/hdhq/ZxPwEfAB8A1Q6zuVaQUgtppjMPkDHDZqtHESDVMDxpM/wKpCXe0bzzavX8unY1/n07dfZ5t5U5YqGffaixx/zkW07tAppuOK++ZO+97tFPalMdHuq5cR3UfwGvAUsM7NpNykUwCxNdI0gI3l/4ap5nXfzrIQBeUh4zhi37yZ07jtgjM57eCuvProAzGf/CG66jB+7GsxH1fcN3fGVLdTqIxGwJ+A5cC7wOHUwhVxrQDE1mEmDzdrnUe7rj2MEshJ9pHsM///fLW6/cWd6V9/wauPPMDCH2e6nQoAsyZ/7XYKEmPhUIgFP85wO42qSCLalO0UYBbwZ+BzVzOKIRUAsTXQ5OHBRx9nnEAjC9/+d5SGKKrQXpp4MXvqdzz/wF0s+CG+fvBuXr/W7RQkxjauXVOlUyRxpg8wkej+gFuIbhqs0VQAxE4rTLv/HTLEKAG/x0OdZPM/8vVF+vYfD/K3buHpe/7MF++/QyQO+y97LN0vIYlj/arlbqdgwzBgGvAhcCvRkwQ1kvYAxM4hJg/7/H669zNaQCA32YfX8GfyrvKQOv65LBwK8d4LT3PmoJ58/q+343LyB2jYtLnbKUiMVQRrTEMwD9GGbfOAB/j/fgQ1ilYAYmeAycMduvciPTPTKAEbbX83Ftf6kzOuWvjjTB7+03UsWzjP7VQOqM8Qoy0vkoAaNGnqdgq2BYhuFjwWuBCIjw02lmgFIHaMCoBeAwcbDe71RFcATATDEfJLVQC4IRgs59l77+CKUYcnxOTv9fk4bsx5bqchMda6Y2ey69R1Ow0ndAWmAH8DUl3OxRoVALERALqZBDAtALKTfPgM38luLanQuX8XrFu5nMtHDuetfzxCOJwYr19OOv8SWrXfV8dWqakCgSSOOOlUt9Nwih+4CZgOtHE5FytUAMRGO6JFQLX4AwHj9/85SebL/1tK9O0/1r6b+AkXHz2YJfNmu51KpfUZMowr77jP7TTEJef94WbqNmzkdhpO6g78gIW27m5TARAbXUwebtGmHanp6UYJZBsWAMUVYYp19C9mIpEILzxwN7ddcCZFu3e7nU6leH0+Tr7och588wP8ATt3TUjiya5Tlzv+8RIpqWlup+KkXKJ3DNxJAjcQ0ibA2DC6I9W0narP4yE9YFbr5Zep61+shCoqeOD6K5j43li3Uzmg1PR0GjdvSd+hwxl55rla9hcAeg8aypPjJnLbBWeydeN6t9Nxihe4CzgIOAMocjWbalABEBtGKwCtDe9Yz0ryGpeoO7T5LyZKS4q545JzmPbVRFfzSMvIoEWb9jRv05aW7TrQPK8dDZo0JS09g5S0NDJzcklJS9ONf7JPHXv05u2pc/jsnTeZ8O5brPh5AWWlJQBk59aheZt20U9eW1q0aUf9xk1ISUsnNS2NjOwcUtPS8QcCFBUWEo6E2ZWfz87tW8nftpWNa1axdsUy1ixdzPKf51NS5OrcexzwBdGTAgVuJlJVCbt0kWAWYFAE3PvyWIaMGFXtwVtmJNE8o/pLshXhCNO3Flf7eamc3bsKuPmcU5g3c1rMx05JS6drn370GTyMPkOG0a5rD7xevSEUe0IVFRTt2U16RiY+v73vnuFQiJWLf2bBrBnMmvw1s777xq3XZrOBo4BtbgxeHSoAYqMYg6Mjb0+ZS7O86m867ZSbQl2DI4A7ykIs2lla7eflwLZt3sgfTz+eVUsWxWzM9MxMDh15IkedfAbd+w2w+kNZxC0VwSDzZkxl0kfv8+34cTG5/voXFgNHAAnx3kMFgPPqADuq+3BySipfLN+M11f9CbxP/VRSfNX/NrdqdzkbimpMh6+4U1iwk6tOODImk7/H46Hv0OGMOHUMg0eMJDmlxhxpFvkfwWA5U7+YwAevPMdPUybHathVwFAS4JphFQDO60a0nWS1tOvSnZe/qv71ml4PDGxodoJg7o4Stf91SFlpCdefNsrxZX+v10v/4UdxwQ230qF7L0fHEolHq5YsYuxTj/LluHcJVTi+p2kBMJg43xOgl3zOM+qNWa+x0f1BpPnN/ogjoJv/HFIRDHL7xWc7Ovl7fT5GnHYWb373E397/T1N/lJrte7QidueeJ43J//E0aec6fQel67AOOL8DgEVAM5rZvKwaUONVIOlf4DSijBhtf+zLhKJ8OBN1zi62799t548+8kkbn3sWZrntXVsHJFE0qx1Hrc98TwvTJxMj/5Gd7QdyKHA68TxPBu3idUgRisAdeo1MBo82Wf2lkfNf5zx0t//ymfvvOFI7OzcOtz00JO8MHEynXr1cWQMkUTXvltPnvxgIrc+/hyZ2TlODXMq0fsD4pK2/VadB2hJtLlPW6AF0W/5jYl2h8oBMvb+u5kY/h7XadDQ5HGSTAuAkL7+2/bdxE94/fG/OxJ74BEjuOXRZ8ipW8+R+CI1icfjYcSpY+g3dDh/v/Fqpn45wYlhbgBmAP9yIrgJFQAH1hQYBBy899Od/5/gHVfXtADwmhUAZSGtANi0buVy7r3mEiIRu4WVPxDgklvu4vTLrsFjeOmTSG1Tt2EjHnjtXd578Wmeved2gsFy20O8AMwCVtsObEIFwP9KAoYBI4AjAbM+vIZMVwCSDfcAlGsFwJqKYJB7rrrIepOSBk2acdezr9Ktb3+rcUVqE4/Hw6kXX0m3Pgdz2wVnsm3zRpvhc4C3gSFA3Jyp1h6AKD8wkuiGjS3AROBaXJ78Ifo+14Tf8MtguXYAWvPi3+9h0exZVmPmderCc59+o8lfxJJOvfrw3IRvad+tp+3Q/YF7bAc1UdsLgPbA34k2bPgEOJtopRY3fH6zW9W8hsvBQRUAViz8cSZvP/2Y1Zi9Bw3l6Y++ol6jxlbjitR29Rs14akPP6f/YUfaDn0j0RXmuFAbCwAPcDTwGdG2jTcCcXt5tT9g9pbGcAuAjgBaEA6FePjmPxAO29tPMfjo43jwzfdJz8y0FlNE/l9KWjr3vfqO0T0sv8MLPE30VbPralMB4AVGE72wYQLRd/xxv1vKtD+7CgD3vf/ycyxbMNdavENHnsBfX3yTpOQUazFF5H8FAknc/fzrDDvuRJthOwJ/tBmwumpLAXAsMIfoMYweLudSJT6faQFgVgGELe9Wr23yt27hpYf+ai1e70OGcMdTLxndDSEilefz+7n9qZfoO/Qwm2H/TPQ4uatqegHQE5gEjCfakz/hmK4AmEzgoUgETf9mnrjzTxQVFlqJ1aZzV+59+W0CSXHdXVSkxgkEkrj3pbfp2KO3rZBpgN1NQdVQUwuATKK/ubMAq2VbrPkNNwGWGRzjM3lWYPbU75j0oZ3eHw2bNueRdz4mIyvbSjwRqZrU9OieANP27L9wAtGrg11TEwuAkcDPRI/xJfw6aUWF2ZHRgvJQtZ/dWVb9ZwVe+rudEz8+v587n3mFOvXN2kKLiJn6jZrw1xffsrkKd4etQNVRkwqANOBx4GMML+CJJ0WFu4ye31xcUa1l/AiwpcTxKzNrrOlff8HcGdW/xvmXLr31LzrnLxInuvY5mEtvvctWuEHAUFvBqqqmFAB9gPnANSTAzv6q2GNYABRXhNlcXPVVhE3FQV0EZODVRx6wEmfgESM4/bJrrMQSETtOveQq+h16uK1wt9sKVFU1oQC4FPgeyHM7ESfssbCBbOXu8iq9CigoD7Gq0Hov7Fpj3sxpLPxxpnGc7Nw63PrYs+rtLxJnPB4Ptz72rK09OcOBATYCVVUiFwBJwIvAs0CN3RZdtNtsBQAgEoGFO0vZVBzc7+uACLCxOMjC/FLt/jfwzjNPWIlz6W1/IbtOXSuxRMSuug0bceltf7EV7lZbgaoiUQuAXKL9+i90OxGn7dllXgBAtAhYUVjO7O0lbCiKLu+HIhFCkQjFFWE2FAWZvb2ElYXlmvwNbF6/lilffGocp8tB/Tj2jHMtZCQiThl11gV07XOwjVAjcGHvWiLeBtgC+JxoNyXXpKSm0bpDJ5q2zqNpy7zor63yyMjMIiUtjZS0dAJJSXz0+ks8d9+d1R7HxiuAXyquCLNqdzmr7F5IJ3t9OvZ145a/Xp+PPz7wKF5votbnIrWD1+vl6r88wGUjDzO94tsHnAPcZyezykm0AqAd8CUudFBKz8qie7+B9Dg4+unY8yD8gQOf0Tc9M7p143qj5yV2QhUVfPr268Zxjj7lTNp1TaiGlSK1VufefRl67PF8O/5D01DnAfdD7BZhE6kA6AJ8RQwv7knLyGDQUSM5/MRT6DvksEpN+L9lWgBsWL3K6HmJnR+//9b4DnGvz8eYq663lJGIxMLFN9/J5AmfEA4Z9U5pBxxCdFN7TCRKAdCeGE7+vQ8ZwvHnXMQhR44gOSXVKFbd+g2Nnt+weoXR8xI7kz563zjGsONOpEWbdhayEZFYadGmHUNGHGdrFSBmBUAinC9qDUzG4Q0SXp+PoceM4swr/2Cz3zMFO7ZzXNdW1X4+JTWNL1Zs0VGwOFcRDHJ89zwKC3ZWO4bH4+GVr6bRpnNXi5mJSCwsmvMjl4ww7ulTANQHYtKFLd53GdUhenWvY5O/1+tlxGlnMfb7Odz9/BtWJ3+ArNw6Rm0jS0uK2b5lk8WMxAlzp08xmvwB+g4drslfJEF16nmQjY6dOUA/C+lUSjwXAEnAe0AHpwbo0L0XT334Bbc+9ixNW7V2ZAyv12sce6P2AcS9aZM+N44x4tQxFjIREbeMPNPK0d2YXRAUzwXACzh0k19O3Xrc/MjTPD/h33SNQY/1lm3bGz2/bsUyS5mIU6Z//YXR8+mZmQw6+lhL2YiIGw4bdRLpmZmmYY60kUtlxGsBcDXRM5HWHTT4UF6dNJ1jzzgnZuesmxtu6loyb46lTMQJ+du2smbZEqMYw447iZTUNEsZiYgbUtLSGXTUSNMwBxNtdue4eCwABgIP2w4aCCRxxe1/5dF/fmLzPudKMd3VveDHGZYyESfM/2G6cYwjR59uIRMRcduQY44zDeEDhllI5YDirQDIBt4Cqn7gfj8aNWvBUx9/yRlXXOfKbnrTFYCVi3+mpKjIUjZi2zzDa3/TMjJ03a9IDdHv0MNtrOZZ6S98IPFWADwFtLIZMK9jZ57++Es69TzIZtgqadulG16fr9rPh0MhFs/9yWJGYtPiOT8aPd+j/6BqNZkSkfiTkppGt37GBX03G7kcSDwVACcDVrdB9x40lKc/nkT9xk1thq2ylNQ0442ANq6XFfsikQgrFi80inHQIOOzwyISR3ofYvx3ulYVALnAkzYDDj/hZB4aO87GjkwrTPsLLPzpB0uZiE2b162hyPDCpt4qAERqlJ4DBpmGaEYMNgLGSwHwIBbb/A4ZMYo7/vESgUCSrZDGOhgWAPNnTjPtMy0OWG24+z8tI4M2ndT8R6Qmade1Oz6/cad9x1cB4qEAOBi4wFaw3oOGctezrxi9c3dCxx69jJ7flb+Dn7UKEHc2rllt9HyLNu117a9IDZOckmrjTo8aXwB4gEexdCdBxx69uf+Vfxq13nVK+249jHeGfv/FZ5ayEVs2r1tj9Lwu/hGpmSy09W5hI4/9cbsAOA0YYCNQw6bNefCtD0jLyLARzrpAUrLxztApKgDizpYN64yeb95WBYBITdS0ZZ5piHo28tgfNwsAH3CXlUB+P3c+8wo5dR3//TJiujN09dLFrF+p64Hjyc7t24yeb9nWsasuRMRFjZobf4Gv0QXAOVi66OfSW/+SEI1UDhp8qHGMqZMmmici1hTuzDd6vn6jxpYyEZF40rBpc9MQNbYA8AF/thFo4BEjOP2ya2yEclyHbj3JzM4xijHl808tZSM27DIsANIy4uOYqojYlZVrfIqvxhYAJwLGL0iycnK55dFnXGnvWx1en894FWDO9Cls27TBTkJirLSk2Oj5tDjpUyEidmVkmX3ZowYXAH+wEeSSW++K+/f+vzV4hNlFEeFQiE/fecNSNmKqojxo9LxWAERqptT0dNMQjh9nc6MA6EP0xj8jnXr14bgx51tIJ7YGHn60cYOiT99+g3A4bCkjMREMlhs9b+GHhIjEIQv9PRzv/OZGAXCxaQCv18sf7n0oIRuoZGRl0+uQIUYxNq9bw4/ffWsnITGSkppa7WfTMzPjqluliNjjMZ+fKmzksT+xnkEzgDNMgxx18hl06tXHQjrusHBfNJ+89YqFTMRUgybNqv2shV3CIhKnQhXG83eNWwE4ETB66en1ehlz9R8tpeOOwUeNNO4T/f3ETynYsd1SRlJdfYceZvDscIuZiEg8Kd692zREjVsBONU0wNBjjze+WtdtdRo0pJ/hD/9gsJxP337dUkZSXSPPPK9a9054fT5GnnmuAxmJSDwo2mN2Syg1rADIAY4wDTLmqustpOK+EaedZRzj3ef/QVlpiYVspLryOnbmhHMurPJzJ51/Ca3ad3QgIxGJBxZWaM2ajFRCLAuAERgea+gzZBgdupvdqhcvBh11DFk5Zo0i8rdt5ZM3X7WTkFTbVX95oEr9HfoMGcaVd9znXEIi4rqtG9ebhnC84UusCwCzAKeOsZFHXAgkJXP4iacYxxn79GMEy8ssZCTVFQgk8eBbHzD6gkv3+zrA6/Nx8kWX8+CbH+APBGKYoYjE2tYNxvO34wVA1V9eVo8XeAao9qHn1PR0bn7kafw16NhU3QYN+fiNl41iFO/ZTf0mTenYo7elrKQ6fD4f/YcfxaHHnkAgKZmSoj2UlhQTSEqiRZt2HDn6dP700D84+pQzq7VnQEQSy8dvvMSqJYuMQgD/tpTO74pVD93uwFyTACNOHcOtjz9nKZ34ccWow5n/w3SjGI1btGLs97P1rVJEJE6cNeQg1ixbYhLiIuAlS+n8rli9AjDu/Hfk6NNt5BF3Trn4SuMYm9au5stx71rIRkRETJWVlrB+lfHV7cabCA4kVgXAISYPp6Sm0WOAUYi4NfSYUTRu0co4znvPP2WejIiIGFs8d7aNRkDzbOSyP7EqAPqZPNyj/yE1tmWq1+fjxHMvMo6zbOE81q1cbiEjERExMW/6FNMQm/Z+HBWLAiANaGsSoLdh7/x4N3LMeaRbuBZ26bw5FrIRERETc8wLgB9t5HEgsSgAupmO03vQUEupxKfM7BxGX3C5cZziIuPWkyIiYqCkqIg50743DTPLRi4HEosCoLPJwympabTv2sNWLnHrtMuuNl4FSE3LsJSNiIhUx8xvv6K8rNQ0TI1ZAWht8nDzvLa14tx0Vk6u8SpAu241v1ASEYlnkyd8YhoiAvxgIZUDivsCoEW7xL74pyrOuOJaMrKyq/Vsm85dE/6SJBGRRFZSVMR3E40LgFnAFgvpHFAsCoAWRg+3qT2TWkZWNmde+YdqPXvOtTdZzkZERKri64/fp6SoyDTMeBu5VEYsCoD6Jg/Xtm+1Z15xHd369q/SM8NPOJnDRp3kUEYiIlIZ48e+ZiWMjSCVEYsCoJ7Rw40a28ojIfj8fh588wO69xtQqX9/2HEnctsTzzuclYiI7M+CWTNYMGuGaZj1wGwL6VSK0wWAB6hjEiDNwvn4RJOelcWTH0zkyjvvo27DRr/77zRrncetjz3L3c+/UWObJImIJIp3nnncRphPiW4CjAmnLwNKBozOQ/xz+nyatDTaR5jQKoJB5v8wneUL51NeVkpaRibtu/WgU68+eL2xvM1ZRER+z8rFP3P+8P6Ew2HTUIfi8A2Av+R0AZAF7DIJMH7hGrLr1LWUjoiIiF03n3sqU774zDTMEqATMVwBcPorZLJpgLQMNbcREZH4tGDWDBuTP8DzxHDyB+cLAOP1EAs3KomIiFgXDod54o4/2QhVBrxhI1BVOF0ABE0DlBQX28hDRETEqnGvPM+i2Vba9v8L2GYjUFXEfwFQtMdGHiIiItZsXr+WF/5+t61wT9sKVBVOFwClgNEafqlWAEREJI6Ew2Huv+4yigoLbYT7HJhqI1BVOV0ARICdJgH27LbyGywiImLFP599gp+mTLYV7k5bgaoqFgfJ800e3rxuja08REREjMybOY3nH/iLrXCfAsbtA6srFgXAZpOH161YbisPERGRatu6cT1/vvBMKoLG29sgukJ+l41A1eWPwRhrTR5ev3qFrTxERAQo3rOH1UsXsWd3IRmZWeR17ExKWrrbacW1PYW7uPGs0ezcbm2z/gdEr/51TSwKAKM1/PUrVQCIiNiwaM6PvPrIA/zw7SSCwfL//vOk5BT6DTuc8/7wJzp07+VihvEpWF7GLeedxspFC22F3ANU7+53i2LxCmClycOrly2xtdwiIlIrRSIRXn7oPi495lCmfjnhV5M/QHlZKd9PHM8lI4by6iP3E4nEtCFdXAuWl3H7xWczZ9r3NsPeDqyzGbA6fDEYIwm4uLoPVwSDDBh+FA2aNLWYkohI7fHsvXfwxuMPHvDfi0QizJ76HZvWruGQI0bU+gvHystK+fOFY5j61USbYX8iOie6XmXF4k/3ZwxbAs+dPsVSKiIitcu0SZ8z9qlHq/TMxPfGcscl5xAsL3Moq/hXVFjIjWeNZtqkz22GDQGX7v3VdbEoAPZg+BrA8tKLiEit8fz9d1XruckTPua6U0ba3PSWMLZuXM8Vxx/OT99bv5n3YVze+PdLsVrfmW7y8LyZU3UpkIhIFa1asojlC+dX+/l5M6dxyTGHsuLnBRazim9zpn3PJcccysrFP9sO/T3wZ9tBTcSqAJhm8nDR7t3M+u4bW7mIiNQKC2eZ95jZvG4Nlx47jI/eeMlCRvErEokw9qlHue7UkezYYtS+5vdsBU7Hwv04NsWqADDuc/zlB+/ayENEpNbI377VSpyy0hIeuula/nzRGHbl77ASM55sXr+W6045lmf+ersTq81hYAywwXZgU7EqAOYCW0wCTJ7wMaUluhhIJJGtXLSQx2+/kXMO7csRbRpyRJuGnHNoX5644yYnllxrvdS0DKvx/v3pR4wZ3Jsv3n/Haly3hMNhPnztRc477GCbvf1/6y/AV04FNxGLY4D/0QPoXt2HK4JB2nTsQl7HzhZTEpFYCJaX8dhtN/D3G65i4Y8/ULBjOxXBIBXBIAU7tvPzTz/w8ZsvU7B9G32GDMPni+WPppqraE8hX/zL7mRdVlLC5M8+Zt7MqbTt3I06DRpajR8rC2bN4Nbzz2D82FcJlpcf+IHqeYtowx/Xj/z9Hk8MxxoDvGkS4KDBh/LYu+MtpSMisRAsL+OGM0+s9Des3oOG8tDYcQQCSQ5nVvOVl5UyqnuerWtr/4fX6+XoU8dw/vU306h5S0fGsG3l4p95+cG/MnnCJ043PJoIjCLO3vv/UizL7LXA9SZjblq7moFHHE29Ro3tZSUijnrs1hv4Zvy4Sv/7m9auYc+uAvoPP8rBrGoHn99PWWmpY0epI5EIyxbMY9yrL7Bh1Upatm1PTt16joxlatHsWTz1l1t47LYbWL10sdPDzQBGAqVOD2QilisAAOOBY00CHDryBO55wWghQURiZOWihZx/+ADC4ar1AvP6fLw6aTqtO3RyKLPao7SkmMuPG250HLCyPB4PvQ4ZwvFnX8jgESNdX8UpLS7i3599zIevvcgCCyciKmkxMBjYHqsBqyvWL9r8wIkmAdauWMYRJ5xKVm4dSymJiFPeePIhFv44s8rPRSIRAknJHDzscAeyql38gQD9hx3B959/xp5dBY6Pt2ntGr4dP45xrzzP+lUrSEpJoVGzFjFrK1xaUsyMb77kzSce4v7rL+frj95n68aYbcBfBBwJWD9H6IRYrwCkA5uATJMgI047i1sfe9ZORiLimLOH9qn2cmtex8689k3Viwf5fds2beC6U0aydsWymI+dlpFBr4FD6DN4GN369adNp674AwErsSuCQRbP/Yn5P0xn9pTJ/DRlMmWlJVZiV9EMoivcCXNOMtYFAMALwEUmAbxeL8+O/5pOvfpYSklEnHBUu0YU79lTrWfTMjL4fFlCfJFKGPnbtnLTWaNZMm+2q3kEkpJp27krLdt1oFleG5q0aE29Ro3JrlOXnDp1CSQn/+rf37OrgLLSUrZv3sT2LZvYunE9q5cuZvXSJaxZtoTyMtdftX8OjAaK3E6kKtwoAPoRrZSMdOp5EM9++k2tv61KJF6FQyGGNsuu9vNen49/r99lMSMBKCkq4q7Lz2PqlxPcTqWmeAc4F3DsLKFT3Jg9Z2LYGhhg0Zwf+ezt1y2kIyJO+O2d81Xl99tZIpZfS01P5/5X3uG0S6/G43HjO2CNEQLuJHrEPeEmf3CnAAB43EaQ5+6/q1beVCWSCCrKzY4/+wN+S5nIb3l9Pq66637ue/ltMrNz3E4nEW0DjgbuxvC6eze5VQC8j+EVwQAFO7Zz37WXOt3MQUSqodzwLnm3j5DVBoOOHsnLX02lc+++bqeSSKYAvYjT9r5V4VYBUAH81Uag6V9/wTvPPmEjlIhYVFpsth8qKTnFUiayP42ateAfH37OqZdcpVcC+xcC/g4MIw4v9qkON3fQvQGssBHo+fvvYtHsWTZCiYglhQU7jZ7PyK7+BkKpmkAgiav/8gCPvTuelm3bu51OPPqR6Ab2PxHHrX2rys0CoAK43UqgYJA7Lj2X/K1GFw6KiEW7C8yazqRnZVnKRCqr96ChvPL1dC65+U5SUtPcTice7AauAw4GfnI5F+vcPkP3DhaOBAJsXreGG3YZ8HgAACAASURBVM8aXe0zxyJil+kKQGaWNqe5IRBI4uxrb+SNybMYdJRR5/ZEFiG6V60L0U3rIXfTcYbbBUCE6AVBVnbxLZ0/h1svON34+JGImNu5bavR89qd7q5GzVpw/6v/5OF3PqJb3/5upxNL44E+wMnAOpdzcZTbBQDAVOBlW8F+/O5b7r3mkipfPiIidm3ZuN7o+boNG1nKREz0Gzqcpz/+iifen8BBgw91Ox0nTSC61H8cNXC5//fEQwEAcBNg7QX+pA//xV8uP4+g4TEkEam+rYYFQL3GTSxlIjb0GjiYx94dzzOfTGLgESNqShfWUuAtYABwDNFGdbVGvPwJ5gPX2Az49ccfaE+AiIu2bjAsABo2tpSJ2NS1z8H87fX3eHfmQi6++Q6a57V1O6XqWABcCzQBzgKmu5uOO+Lt0OebRNsqWtOhey8efOsDcuvVtxlWRA7g+O555BvsA3j6469q27vnhLVg1gw+f+9tJn30L3bH4MrhaloDfAa8Ti2d8H8r3gqAHGAu0MJm0EbNW3LXM6/Q5aB+NsOKyD4UFuzk2E7NjWJ8OGe59gEkmFBFBYtmz2LWd98wa/I3LPzpByqCrh2brwC+J/pu/zOi3/rlF+KtAAAYCHwLWL0JxB8IcMktd3H6Zdeo25WIwxb8MJ3LRx1e7edT09P5fNlm/V1NcCVFRcyZ9h1zpk9h1eKfWb1sCZvXrYlF+/ZlQF9A10nuRzzetjEV+CNgtb9vRTDI03ffxuyp33Hb48+RXaeuzfAi8gurly0xer5Zqzaa/GuA1PR0Bhx+NAMOP/q//6y0uIjVy5aweuli1q9cwa6dO9i9q4DdBQV7f81n++bNlJYUmwz9E5r8DygeCwCAJ4m2XTzLduBpX01kzODeXHrrXRx7xrk1ZSerSFxZvnCe0fNNW+dZykTiTUpaOh179KZjj977/Hfuu+4yJvzzTZNhFpo8XFvE8+x3IfCNE4F35e/g7zdczcVHD2Hhj7Xq1IdITPw8+0ej5/M6draUiSSin81/Ls+3kUdNF88FQDlwCrDUqQGWzp/DFaMO577rLmPdyuVODSNSqwSD5az42Wy/Vdsu3SxlI4lm964C1q5YZhpGG/4qIZ4LAIAdwFE42I4xHA4z4Z9vctbg3txxydksWzDXqaFEaoWVixZSXlZqFKNtZxUAtdWi2bNMNwkWAystpVOjxXsBALAaOAIwayx+AOFwmG8+GccFRxzCH08/nq/GvWe6CUWkVpo7fYrR8xlZ2TRq3tJSNpJoLLyW/RlQL/hKiNdNgL+1BDgc+BJo6PRgM/89iZn/nkRaRgZDRoziyNGn0/uQIfj8ifLbJeKe2VO/M3q+Q49eOgFQiy388QfTEHNs5FEbJNKMNh8YSrQIMOswUknFe/Yw8b2xTHxvLGkZGXTvN5Dehwyh58DBdOjWE6/PZ2WccCjE6mVLWLloIZvWrsbr89G4RSt6DhhEnfoNrIwhEgvhUIg50743itGtj7r/1VbB8jLmzphqGsbsf8BaJJEKAIiuBAwh2tmpYywHLt6zh+lff8H0r78AoudbW7RpT/M2bWme144WbdrRqFlzUtMzSE1PJyM7h9T0dAKBJEqKiqioCLJnVwH527ZSsGM761etYN2K5axetpil8+dQUlT0P2P6AwEOHXkCl//5Hho0aRbL/1yRalm6YC57Cs2OX3fte7ClbKS6wkAkAj6Iabu42VO/o7T4f38WVtG/beRSGyRaAQDRPQGHAB8QXRFwRUlREUvmzWbJvNmOjVERDPLVuPeYNulz7n1xbE2/ilNqgKlfTjR63uv1qmW3SypCEbaVhNlZGqY0FCESAY8H0gJeclO81E/14nW4GJg26XPTEGuJzhFSCYmwCfD35ANHAq+4nUgsFBUW8qdzTmHx3FpxRbUksKlfTjB6vk2nrmRkZVvKRiorvzTMgu1BNu4JUVIRnfwhugpQVB5mfWEFC7cF2V3ubAvfaV+ZFZDo23+VJGoBANE+ARcAlwFlLufiuLLSEv561UWEKircTkXkd23bvJGl8832X/UZepilbKSythaFWVVQQegAc3t5OMKynUF2lTmzwX7timVsWL3KNMxkG7nUFolcAPzHc0T3BaxwOxGnrVm+lG/Hf+h2GiK/67sJ440veek7RAVALBWVh1m/p/JfKiIRWFVQQTBsfyXAdPVoLxUAVVATCgCAmUAv4GW3E3Hax2/W+P9ESVCTPnzP6PnklFR69B9oKRs5kAiwujBEVWu20P+1d99RVlVnH8e/59650ysdRKolKKBGRDGWKHntJioY1BhjSYzGRI0mJrY004yJLRpNlIhiwYIIYkMDJCIg0qT3PrSB6XfaLef9Yw8RDQozZ59bZn6ftc6aWSx4zubOnrP32eXZLpTWxKyX591XX/IaYgs+Zo5ti9pKBwCgBnN+wDcwFaFNWjhrBju3ttn/nqSpHaWbWfzRbE8xjjnxZDKzsi2VSPZne22Mhmjr3uQrGlxiFmcC1q1Y5nn6CNDwaAu1pQ7AHpOAIzAnCtrvpiZZPB630VMWsWrqxPGeh/9PPvs8S6WR/WmIuWwLt74Fj7suda3sPOzL2y8/byPMqzaCtCdtsQMAZjTgRuBYYGqSy2LdlPHjkl0Ekf9yXZc3XnjGU4xAIMBJZ5xrqUTyRVwXNlRFPXfYGqN2hgDisRjvvvqi1zC7AG8pKNuhttoB2ONjYDhmWsDbAeUpZN2KZSyZ+2GyiyECmNz/G9d4m3o94tjj6NDF9yzfAmwLxwhb2M4XsJSuee7709i1fZvXMJMAbZFqobbeAdhjEnA0MJI20hF47eknk10EEQAmjh3tOcZp511ooSSyP7VNLtvCdmZGs+xkQuf158bYCDPBRpD2pj2euOFgThe8BZNMKC0/g8ysbF6dv5KiDh2TXRRJoDhQ1RCnutGlIRrHdSAz4JAfCtAhJ0BGgrv05WU7GTlkAJGm1qfiCASDTJi/SiMAPovEXFbsjtJkYQtfMACDu2R6foPcvnkjo4YNJh7z1CmpBrrQDvLB2NZeRgD25gJTgLOAI4E/AzuSWqJWaGpssNVzljRR1RhnaVmEdZVRdtXHqI24hJtcKhribK6JsrgsYt7u/E3W9ikTnvqHp8YfYMjJp6nx95nruqytillp/AE65watNB4vP/mY18YfYCJq/FulPXYA9rYc+CnmdMGvA2MBbyeZJNArox/z/PCV9LAzHGdNRZSmL0jXFnddttbEWFsZbfHe7tZobKhnwtNPeI5z5sWXWiiNfJGNVTHCTXYW7WUEoGuu9/H/cHU1b7zwtIUS4b0StlPtvQOwRwR4HbgC6AqcDTwErEhmofZn947ttrbPSAorqzNv+AeqsrFlf7+13nrpOarKd3uKkVdYyClnn2+pRLIvpTUxdjfY27TfszDDylTT5BeeJlxT4zXMcrT6v9XUAfhfjcDbwM3AAKAnMAp4EJiF2WKYMp7/24M2htAkRe1uiLO5uuWN+a66OOGIPznbwZxU+dwjD3iOc9bIS8nOybVQItmX7bUxtlta9AdQkOnQMdt7sxGNRHjlyccslEhv/16k43HAiVYKvNR8gVk02AfTOegH9AZ6YUYOOjRfuUAIyG/+N1WY9Vvh5u/LgG1APeZAo1bbsm4t7018hTMuGuUljKSgioY4G6uirZrSdzHTBn2L/enjv/niWLZv3ug5zjeu+K6F0si+lIXjlNbaa/wDjkPvwpCVWK8/N4btWzZ5DdMIeEtA0c6l5Qr4NmYmMMxLgO69+vDcjPmEQpmWiiTJVt4QZ31V1NOCvqADR3e1XyeikQiXnXQM2zZt8BTnqBO+wiMTPJ//LvuwvTZmtfEHOLgggy553juUDXVhRg0bTPlOz2uvnwe+5blA7ZimAJLvfq8Btm3awFsvPmujLJICdtbF2VDprfEHc2iLH7MAE8f+03PjDzDi6uu8F0b+x5Ya+41/YVbASuMPZuW/hcYfNPzvmUYAki8IrAb6egnSuftBPP/BAs2nprmttTG2WXx4D+4cIhS092serq7mkhMHU7l7l6c4PXr35YUPFhIIWsomI8Rdl43VMcrr7fb6QkGHAR1DhCy0/9WVFYw6fiC11Z43W80DhngvUfumEYDki2F2HHhStq2U5x990EJxJBliLqytiFpt/B0H64mBnnn4Ps+NP8A3r/2hGn+LInGXleVR642/A/QpClpp/AGe/etfbDT+AL+3EaS90whAaigANgNFXoJk5+Ty7Pvz6HrQwXZKJQlRH3FZVxWhwfLOvfyQw+Ed7SzaAjPVdPkpQ2hqbPAUp6ikA6/MXU52bp6lkrVvNU0u66qiRL8gR0Rr9SgI0j3PTkdt09rVXHn6CTZylywDBmEWVosHGgFIDTWA5z0xDfV1PHbPXRaKI4mysy7OivKo9cYfoGOu3V/vB+641XPjD/DN7/9Qjb8FrmumjFaXR3xp/EuyA9Yaf9d1+cvPb7aVuOwPqPG3Qh2A1PEnoMJrkH9NHM+c6e9ZKI74KRJ3WV0eZXN1lLgPaftyMhw6ZtsbYp8++TVm/cv7iv2ikg6MuPp6CyVq3+qjLivKI2yrjfmS+TkvFKBPkb36M2X8OObP+LeNUOsAnYduiToAqaMC8J5ZBbjvtptoqAvbCCW2uWZ//tKyCNWWUrN+VjAA/YozsHRaK+GaGh6++zYrsUZddyN5BQVWYrVHcdeltDbG8t0R6iL+5HvODDj0Lw5aO+63pqqSR399h5VYwB/Rsb/WqAOQWh7EJAnyZPvmjTzxx99YKI7YVNPksnx3hM01UXwYsQVMspZDSkJkZ9hb3vPor++gbPtWz3GKO3Zi5DV6+2+tikaXZbuibK+N+XbWQyjgcGjHDKs7Rx7/7S+o2OX5sQbm7V+JfyxSByC11GB6uJ698s/H+fjDmTZCiUf1UZc1FVFWlUeoi/p3Sk8A6FccJD9k7+E9e+oUJj8/xkqsq269g5w8zf23VG3EZdXuCOsqIjT61XPEjBwd0iGDbIuN/+ypU3j9uadshfsZOvXPKu0CSD3ZwCrMCYWedOnRkzFTZ1NQVOy9VNJi9VGXbTVRKhtd30/odRzoW5RBiYU87XvUVldxxVeHUrat1HOsXv0P5elpc8gI2duV0NZVNcbZEY5R0+T/0Y4BBw4tySA/0179qdy9i++cfrytpD8zgZNI6GHXbZ824qaeKLALuNBroHBNNWXbtnLqOV/3Xio5IC7mwb25JsaWmhgNCTinKQD0LQlZbfwBfnPDNSyb/5GVWLc/+Dh9DvuSlVhtWdx1KW9w2VAVZWddnKYE1J+gA4d2CFlt/F3X5ZfXXsHqJR/bCBcHRgDe56HkUzQFkJqexdIRl1PGj2PKeC2a9Vt91GVLTYwlOyOsrYhS3ZiYXUoBx6F/SQYlWXYH88b/8+/8+42JVmINOeU0vnLGOVZitVW1EZPFb9HOCBuqotT7OFW0t4ygw+EdQlanjQDGj37cyq6RZs8Cc20Fk09oCiB1DQLmY+HExuzcPP4+eSr9BhzpvVQCmDf9uqY4lU0uVQ3xhD2w95YRgP4l9h/eqxYv5LrzhlvZsx3KzGLM1Nn06n+ohZK1IS7URl0qGmJU1rs0xRNffzKDDoeVhMiyfCbsmqWL+f65p1nJGYE5QfVwzKmsYpmOA05di4G/Aj/2GqihLsxd3/0WT7z9vrZgtVLcdamPutRGoKYpTrgxThLa/P/KzjCNv80FWwBVFeXc9d3LbSVs4bIf3KzGH4jFoS7qUtsUpzZiviahzf+vvFCA/sVBQpYngavKd3P7VZfYavzBJP1R4+8TjQCktkJgOdDDRrCTzjqP341+nkBAMz97i8UBB2Jxl0jcJRo3iXoao9AYMw1/Q8xNmeVHBSGHfiUh63n+Y9Eot152AfPen24lXo/efXlm+hyysnOsxEtFLhB3wY27xFyHaDxOUxwiMWiKN9edqEuTj6v3W6pDToA+hUEcW4kimkUjEX486nwWzpphK+RCYCgQsRVQPk0jAKmtGjMC8KKNYDPenszjv/sFP7j7tzbCpaX6qMuu+hg1jS6NMXzJwuenLnkBeubbS/Kzt0d/c4e1xt9xHG67769trvFP6/rjQM/8IF0tpff9rIfu+qnNxj8CXIUaf19pF0DqWwp8CRhoI9iSj2bTsWtXvnTUl22ESxsusLk6yqaqGOGIectPo0c3geZtfl3zgr40/hPHjubJe++xFu/CK7/HiKuvsxYv2dK9/mQGHPqXhOiQ48/o36tP/YMx9//BZsjfopS/vtMUQHrogFkTYGUqICMU4t6xrzD01OE2wqU8F1hdHknIfmo/5IUC9C3KsL5Ya4//vDWJu7/3beIxO3vOuvfqw9NTP2wzSX/Svf6UZDn0KrI/ZbTHrPfe5o6rLyUasfayvhgYAjTZCij7pg5A+jgTeAtLP7Ps3DwefOl1jjx2qI1wKW1TdYyyugRsqLbMcaB7XpBuPr31Ayz+aDY//ub5NDbUW4kXCAR46JU3OXrYSVbipYJ0rT8BBw4uCNIp17+B3gUz3+en37rIWv3B5EE5AZhnK6B8Pq0GSx/vYOHI4D0a6sLcdvkI1q9cbitkSqqPuuxKw4d3XijAlzqG6J7vX+O/ctECbrt8hM2HN5f/6CdtqvFP1/pTnB3gyE4hXxv/5Qvm8vPvXGy1/gC/Q41/wmgEIL3kYXIDHGYrYMeu3Xh4/FttdqvW5pooO8Ppc3R4wHHonh+gW27Q19/OtcuWcNPIc6iqKLcWc+Bxx/PIq+8QzGg7a4vTrf6Egg4H5Qfp6NNc/x7rVizjRxeeSXWl5xPM9/YvzEhn+vW40pQ6AOlnIDAb0xmwokOXrjz8ypv0PvRwWyFTxtJdERqSuWH/QDnQKSdIj7yA1ZPY9mX9yuXcNPIcWye0AZBfWMRT/5pFt569rMVMBelSfwKOQ9e8AF3zgvhcfdi4eiU3XXwuu3dstxl2K3AMsNNmUPlimgJIP0uA79kMWL5zBzeOOLtNTgdEUmj/9ecpygpwRMcQvQuDvjf+Kxct4EcXnWW18QeIRqNsWLXCasxUkEr79/fFae44DuyUQY98/xv/FR/P54YLzrDd+EeBS1Djn3DaBpielgDFmMUyVtTXhXlvwssMPv5Euh7U01bYpNsejqXsdq3CrAB9i4J0yw8SCvg/GPfxhzO59bILqKmstB47GokwddJ4OnfvwWGDjrIeP1l2pGj9cRzomBOgX1GIjrkBggmoPwtnzeAnl11ATZX1+vNz4AXbQWX/1AFIX1OBrwK9bQVsamzgXxPHc+jAwRzc7xBbYZNqd0OcaApN4ToOlGQH6Fds9vRn+v3K1mzG25O58+pLqQ/X+nYPNx7ngylvkldQ2GZ2l6Ra/QkGoEtukH7FGXTMCfq2te+zZrzzBrdfeQkNdXW2Q08CbrQdVA6MOgDpK47ZFngpJmWwFdFIhGmvT6Bzt7bxJtcYcwlHkv8OlxF06JIbpG9RBp1yE/PGv8f40Y/zh1uuJ9KUmG3Vc6a/R6SpkWNP+qr1dLOJlir1JyfDoVt+kL6FIYqzAwQT+LlOfm4Mv73xWqIR6/VnEXA+YOfgCWkxdQDSWy3wHnAZkG0raDweZ8Y7b1AfrmXIyV/FSeOzAzKDDmX1yXmFCzgOxdkBDioI0rsgg8KsxAzV7hGPxXjkV7cz+s+/w01wytpFc2axac0qTjj9DDJCmQm9t03JrD9BBzrlBulVGOSgggzyQwESWH2IRaM8fPdPeeLee3Dj1j+DLcBpwC7bgeXApXf3XPY4HTMaYP1JO2z4mfzyb0+RV2htkCHhNldH2VmXmId40IGCrADFzVcwSX2nqopyfn39lXz076nJKUCzfgOO5Pf/HMdBffomtRxeJLL+hAIORdkBirMcCjOdpI2gVJXv5hfXfpv5H/zHl/DAyZiMf5JE6gC0HaOA5/FhZ0fPfv255x/PcsiRg2yHTog4sKYiQk2jD2/BDuRmOBSEAhRmOxRkBpL+S7V66SLuvPoytm3akOSSGHkFBdz58D84+azzk12UVvGz/gQch9wQFGQGKMx0yEuB+rN22RJuv+oSv+pPBDgXeNeP4NIymgJoO5YC9cD/2Q5cXVHB2y89T4cuXTls0NG2w/vOAUpygsTjLmGPe7ozg6aR75Bj9lz3KsigS16QwqwAWUEn6Q/v155+kl9eewWVu1NnZDXS1MS01ycQCAYYPPTEtFsXYKv+BIDskENBVoBOOQF65AfpWZRB55wgBZkBMlOg/rz+3FPcfe0VVFreJtrMxZzwN8GP4NJyya5vYt+fgVv9Cv61Cy/mlj88QEFRsV+38JVJ7RqnpilOY8wl7pqV1bgQCDgEHcgIQMgxC/cygw5Ze13JGtLfn+rKCu695Qb+89akZBflCx097CTufOjvdDvY2uaVhPps/XFdk3M/4DjNX5vrT8AhFHTIDDhkBiE7w9SfVO37VJXv5t5bf8j7b7/u521uBe738wbSMilaHcWjvwC3+BW8c/eDuOPBxxlyyml+3UJa4KN/T+XeW29gR+nmZBflgOQVFPDDX/2R8y77TrKLIphdG7+/+TrbyX0+S41/CtIUQNs0BSgATvQjeF1tDVPGj6Ny9y4GDz2RzKwsP24j+xGuqeHBO3/CI7/6ObXVVckuzgGLNDXxwZQ3WbV4IV/+yink5OUnu0jtUn04zN/uuZOH7vopdbX+5YfAvIw84OcNpHXUAWi7fO0EACxfOI93XhnHQb370usQa+cTyQGY8c4b/OzbI1kw05dV2nvsmfD2ZaRw89rVvPXScxQWl3DIwMFptzYgnU2f/Bo/u+Ji5v7H110iLqbxf9DPm0jr6Teu7bsP+InfNznl7K9zwy9/R4/e6bvdKx1s3bieh+6+jZnvvuX3rSLAdzEP8dFAyM+bDTj6WH78+78w4Jghft6m3duyfh0P3HELc6a/5/etXOBm4GG/byStpxGAtu9doA74Gj52+DauWcmksU/RUBfmiGOOI5SZvslfUlF9OMwzD93HPTdcw4ZVvh/aFAYuAsZjsrXNAS7AhzwTe+zavo03XniGHaWbOfLYoeTkWjvsUvh0/dm0dpXft4sC1wOP+X0j8UYjAO3HpcAYfHyI79GhS1e+c/PPOP/yKwmlcRa4VBCNRJj07FOMuf8P1k/w+xy7gPOADz/z58cBk4Eufhcgv7CIS39wEyOv+QG5+Vof4EVTYwOvPTOaZx/+c6LqTw0mJ4nvQ1TinToA7ctpmD24RYm4Wbeevbjq1ts5c+SlBDMyEnHLNiMaiTBl/DieeehPlG5Yn6jbbgTOAj7vXN9DgbeBfokoTFFJB0ZddyMjr7menDyNCLRENBLhzRfHMub+eynbVpqo25ZiOo8LE3VD8UYdgPZnEPAmkLAzf3v07ssl193IOZdcTlZ2TqJum5YiTY28MW4szz3yANs3b0zkrWcDI4Ct+/l73TAjAcf6XqJmRR06cun1N3HRVd9XR2A/GhvqmTJ+HM8/+gBb1q9L5K0XYTL8bUnkTcUbdQDap+7Ai5h83AlT0qkzI665jq9ffjUlnTon8tYpr3znDl57ZjQTn3mS8rKdib79k8APOfBT2XIw87sJ3cifV1jIOaMu58Irr20zx1XbUrZ9KxPGPMGksf+kqnx3om//DvBNoDrRNxZv1AFov0KYHQI3JfzGoUy+ev4FXPCd7zF46LBE3z5luK7L4o9mM/GZ0Uyb9CoR+8et7k8T5uf/eCv//XWYLV4JTQThOA7HnTqcEVd/nxOGn0kgjU+r9GrpvDm8Mvoxpk9+jWgkkujbx4HfA78CYom+uXinDoBcCjwBJGVstc9hX+KMEZdw5shL6NIjYbMSSVW2fSvvvPwCb44by+Z1a5JVjG3ASGCmxzjHAy8DB3suUSt0O7g3/3fRN/naN0bSb8CRyShCwpVuWM+7r47j3VdfYtPa1ckqRhnwbczbv6QpdQAEYCBmy1fSsvkEAgGOOuErnHb+RZx01rl07tYjWUXxRdm2UqZPnsj0yRNYMvdD4vbPV2+JKcCVmE6ADZ2BF4DhluK1St/DBzD8gpEM/8bF9OybkHWKCVOxq4xpr0/g3VdfZOm8ObiuDydbHrgZwCWYRX+SxtQBkD3yMAcJfZ8k1wvHcRhwzBBOOvNcjjv1dA4bdHTaDfPGYzGWLZjLh1Pf5cNp77Li4/nJfmgDNAA/A/7KJ1n+bAkCtwN3k4CtpvvT/4iBDD11OENOPZ2jjj8x7RafxqJRlsybw5xp7zFn+nusWrww2Z1GMHXmPuBOzF5/SXPqAMhnnYXJ/JYyr+CFxSV8+aRTOXrYyQwcMpRDjhiUctsKo5EIKxctYMncD/l49kw+nj2D6sqKZBdrbwuByzHHRvvpKEy+iZQ5NzorO4fBxw/juFOHM3DI8Rx65CCyUyzRUFNjA6uXLGLFwvksmPU+c9+fRrg6pdbUbQSuxYweSRuhDoDsSwfgb5iEHiknOyeXw486hsMGHUW/w4+g/xED6XPYgIRtEQtXV7Np7SpWL13E6sWLWLNsMWuWLqahvi4h92+hGOYUtrswi/4SIYQZCbgdSK2eGhAIBulz6OEcPvgYDh98DIcNPpqeffsnbGdKVUU5WzesY92KZaxYOJ/lC+exdvmSZCziOxBx4FHgDsDXE4Mk8dQBkC8yCnOKV/dkF+RAdOzajR69+tC9Vx969OpDccdOFHfqTIfOXSgsLiEnL4/c/AIys7L/J8NcfThMfV2YhrowtdVV1IfD7Nq+jfKynZSX7WBn6RZKN66ndMM6KnfvStL/sMXmYVbqz03S/Y/FjAYMTNL9WyQnL48evfvSo1dfevTuQ/eDe1NQXEx+YREFxSUUFJnvs3L2PZ0Qi0aprqygprLik68VFZSX7aB0wzpKN5j6k0YnN67AnAfxQbILIiLJUYjpBEQwc4C6Uv+qAm4kNc76yMKMPtSS/M9F14FdEcz2/TcUYQAABFhJREFUvux9/DxFpB0aDLxP8h9Our74epEUWr+xl57As5gh5WR/Rro+/3oLaB/7KUWkRRzgCky6z2Q/qHR9+vqIJG/DO0DDMKcLJvvz0vXpaxFwxhf83EREAJMK9lZMMpBkP7ja+7USuJj0Ws8TwOQhKCX5n197v7Zi5vlTYbpIRNJIISYNaDXJf5C1t2sLZltWyq2yb4FszBkEm0j+59nernLM767OWxYRTzoBf8IsPkv2g62tX+swjWZ6Zbb5YpmYzsw6kv/5tvWrFPgJUHBAPxkRkQNUCNwCbCD5D7q2ds3DbMtsy0O1IczUwEqS/3m3tWsV8D0SfHCTiLQ/GZhc4Vrs5e2KYVZlp8PiPpsCmIyUr2FSzib755DO1weYNSLplUtbRNqEYcA/gEqS/zBMl2sT8GugT8s/7jbnYMxnoQWDB37twJzrMaAVn7eIiHU5mFz072HebJP9kEy1qxFzrO5Z6G1tXzKAi4DJmM8q2T+vVLuiwJvACFLgMCYRkc/TG/g5MIv23RmoByZh5r07ePlA25liTD6KSZgTDpP9c0xmoz8N+DEm0ZKISFrphlmcNBnTICb7oer3VYPJ1jcKrcS2oRD4FjAB89km++ebiPrzMvBtoKOFz0/asXRKHiJtXx5mwdupwMnAMaT3PncwnZpZmDe1aZiFkSl57FsbEAKGAqc1XyeS/vnsI5gdIDMx02dTMVMgIp6pAyCprAD4CnAKpkMwGPPGl8o2AwuA+cB0YDZ6YCdLNmYR6mnAEEz9OSipJdq/KkxjPxNz9sZHQEqeMy3pTx0ASScOZmX8oOZrcPPXfiR+f/MuYD2wBliIafQXNP+5pK5OwFF7XYMx9SfRHcsqzHG7y5q/Lm++1mEOTBLxnToA0lZ0w2wZ23P1bv6zguYrHyhp/j6Hzx+Gr8akSa3Y6+tuYDsmwdH65qvGn/+GJEkRn9SbvetRMaa+lAC5zd8XYeqTwyf1II5p1Pd8XwbsBLZhtuWVYfLu78TUo1Kf/z8iIiIiIiIiIiIiIiIiIiIiIiIiIiIiIiIiIiIiIiIiIiIiIiIiIiIiIiIiIiIiIiIiIiIiIiIiIiIiIiIiIiIiIiIiIiIiIiIiIiIiIiIiIiIiIiIiIiIiIiIiIiIiIiIiIiIiIiIiIiIiIiIiIiIiIiIiIiIiIiIiIiIiIiIiIiIiIiIiIiIiIiIiIiIiIiIiIiIiIiIiIiIiIiIiIiIiIiIiIiIiIiIiIiIiIiIiIiIiIiIiIiIiIiIiIiIiIiIiIiIiIiIiIiIiIiIiIiIiIiIiIiIiIiIiIiIiIiIiIiIiIiIiIiIiIiIiIiIiIiIiIiIiIiIiIiIiIiIiIiIiIiIiIiIiIiIiIiIiIiIiIiIiIiIiIiIiIiIiIiIiIiIiIiIiIiIiIiIiIiIiIiIiIiIiIiIiIiIiIiIiIiIiIiIiIiIiIiIiIiIiIiIiIiIiIiIiIiIiIiIiIiIiIgL8P0vULm0qiM83AAAAAElFTkSuQmCC;" vertex="1" parent="1">
          <mxGeometry x="426.5" y="170" width="370" height="370" as="geometry" />
        </mxCell>
        <mxCell id="UDwby6lAQDXfC08D9vF1-1" value="" style="rounded=0;whiteSpace=wrap;html=1;fillColor=#fff2cc;strokeColor=#d6b656;strokeWidth=4;" vertex="1" parent="1">
          <mxGeometry x="40" y="360" width="40" height="40" as="geometry" />
        </mxCell>
        <mxCell id="UDwby6lAQDXfC08D9vF1-2" value="" style="rounded=0;whiteSpace=wrap;html=1;fillColor=#fff2cc;strokeColor=#d6b656;strokeWidth=4;" vertex="1" parent="1">
          <mxGeometry x="120" y="360" width="40" height="40" as="geometry" />
        </mxCell>
        <mxCell id="UDwby6lAQDXfC08D9vF1-3" value="" style="rounded=0;whiteSpace=wrap;html=1;fillColor=#fff2cc;strokeColor=#d6b656;strokeWidth=4;" vertex="1" parent="1">
          <mxGeometry x="200" y="360" width="40" height="40" as="geometry" />
        </mxCell>
        <mxCell id="UDwby6lAQDXfC08D9vF1-4" value="" style="sketch=0;points=[[0.5,0,0],[1,0.5,0],[0.5,1,0],[0,0.5,0],[0.145,0.145,0],[0.8555,0.145,0],[0.855,0.8555,0],[0.145,0.855,0]];verticalLabelPosition=bottom;html=1;verticalAlign=top;aspect=fixed;align=center;pointerEvents=1;shape=mxgraph.cisco19.rect;prIcon=router;fillColor=#dae8fc;strokeColor=#6c8ebf;strokeWidth=0;" vertex="1" parent="1">
          <mxGeometry x="330" y="320" width="120" height="120" as="geometry" />
        </mxCell>
        <mxCell id="UDwby6lAQDXfC08D9vF1-6" value="" style="sketch=0;points=[[0.5,0,0],[1,0.5,0],[0.5,1,0],[0,0.5,0],[0.145,0.145,0],[0.8555,0.145,0],[0.855,0.8555,0],[0.145,0.855,0]];verticalLabelPosition=bottom;html=1;verticalAlign=top;aspect=fixed;align=center;pointerEvents=1;shape=mxgraph.cisco19.rect;prIcon=router;fillColor=#dae8fc;strokeColor=#6c8ebf;" vertex="1" parent="1">
          <mxGeometry x="773" y="320" width="120" height="120" as="geometry" />
        </mxCell>
        <mxCell id="UDwby6lAQDXfC08D9vF1-10" value="" style="group;fillColor=#bac8d3;strokeColor=#23445d;container=0;" vertex="1" connectable="0" parent="1">
          <mxGeometry x="450" y="365" width="323" height="30" as="geometry" />
        </mxCell>
        <mxCell id="UDwby6lAQDXfC08D9vF1-7" value="" style="rounded=0;whiteSpace=wrap;html=1;strokeWidth=4;fillColor=#b0e3e6;strokeColor=#0e8088;" vertex="1" parent="1">
          <mxGeometry x="456.5" y="365" width="310" height="30" as="geometry" />
        </mxCell>
        <mxCell id="UDwby6lAQDXfC08D9vF1-8" value="" style="ellipse;whiteSpace=wrap;html=1;rotation=-90;strokeWidth=4;fillColor=#b0e3e6;strokeColor=#0e8088;" vertex="1" parent="1">
          <mxGeometry x="442.5" y="372.5" width="30" height="15" as="geometry" />
        </mxCell>
        <mxCell id="UDwby6lAQDXfC08D9vF1-9" value="" style="ellipse;whiteSpace=wrap;html=1;rotation=-90;strokeWidth=4;fillColor=#b0e3e6;strokeColor=#0e8088;" vertex="1" parent="1">
          <mxGeometry x="750.5" y="372.5" width="30" height="15" as="geometry" />
        </mxCell>
        <mxCell id="UDwby6lAQDXfC08D9vF1-11" value="TÃNEL" style="text;html=1;strokeColor=none;fillColor=none;align=center;verticalAlign=middle;whiteSpace=wrap;rounded=0;fontSize=16;fontStyle=1" vertex="1" parent="1">
          <mxGeometry x="561.5" y="365" width="100" height="30" as="geometry" />
        </mxCell>
        <mxCell id="UDwby6lAQDXfC08D9vF1-12" value="" style="endArrow=classic;html=1;rounded=0;strokeWidth=4;" edge="1" parent="1">
          <mxGeometry width="50" height="50" relative="1" as="geometry">
            <mxPoint x="250" y="381" as="sourcePoint" />
            <mxPoint x="320" y="381" as="targetPoint" />
          </mxGeometry>
        </mxCell>
        <mxCell id="UDwby6lAQDXfC08D9vF1-13" value="" style="endArrow=classic;html=1;rounded=0;strokeWidth=4;exitX=1;exitY=0.5;exitDx=0;exitDy=0;exitPerimeter=0;" edge="1" parent="1" source="UDwby6lAQDXfC08D9vF1-6">
          <mxGeometry width="50" height="50" relative="1" as="geometry">
            <mxPoint x="910" y="379.5" as="sourcePoint" />
            <mxPoint x="980" y="379.5" as="targetPoint" />
          </mxGeometry>
        </mxCell>
        <mxCell id="UDwby6lAQDXfC08D9vF1-14" value="" style="endArrow=classic;html=1;rounded=0;strokeWidth=4;" edge="1" parent="1">
          <mxGeometry width="50" height="50" relative="1" as="geometry">
            <mxPoint x="890" y="350" as="sourcePoint" />
            <mxPoint x="1000" y="290" as="targetPoint" />
          </mxGeometry>
        </mxCell>
        <mxCell id="UDwby6lAQDXfC08D9vF1-15" value="" style="endArrow=classic;html=1;rounded=0;strokeWidth=4;" edge="1" parent="1">
          <mxGeometry width="50" height="50" relative="1" as="geometry">
            <mxPoint x="890" y="411" as="sourcePoint" />
            <mxPoint x="1010" y="440" as="targetPoint" />
          </mxGeometry>
        </mxCell>
        <mxCell id="UDwby6lAQDXfC08D9vF1-16" value="" style="rounded=0;whiteSpace=wrap;html=1;fillColor=#fff2cc;strokeColor=#d6b656;strokeWidth=4;" vertex="1" parent="1">
          <mxGeometry x="1000" y="360" width="40" height="40" as="geometry" />
        </mxCell>
        <mxCell id="UDwby6lAQDXfC08D9vF1-17" value="" style="rounded=0;whiteSpace=wrap;html=1;fillColor=#fff2cc;strokeColor=#d6b656;strokeWidth=4;" vertex="1" parent="1">
          <mxGeometry x="1000" y="240" width="40" height="40" as="geometry" />
        </mxCell>
        <mxCell id="UDwby6lAQDXfC08D9vF1-18" value="" style="rounded=0;whiteSpace=wrap;html=1;fillColor=#fff2cc;strokeColor=#d6b656;strokeWidth=4;" vertex="1" parent="1">
          <mxGeometry x="1020" y="440" width="40" height="40" as="geometry" />
        </mxCell>
        <mxCell id="UDwby6lAQDXfC08D9vF1-19" value="PACOTES" style="text;html=1;strokeColor=none;fillColor=none;align=center;verticalAlign=middle;whiteSpace=wrap;rounded=0;fontSize=16;fontStyle=1" vertex="1" parent="1">
          <mxGeometry x="50" y="250" width="170" height="30" as="geometry" />
        </mxCell>
        <mxCell id="UDwby6lAQDXfC08D9vF1-20" value="ROTEADOR DESTINO" style="text;html=1;strokeColor=none;fillColor=none;align=center;verticalAlign=middle;whiteSpace=wrap;rounded=0;fontSize=16;fontStyle=1" vertex="1" parent="1">
          <mxGeometry x="750.5" y="250" width="170" height="30" as="geometry" />
        </mxCell>
        <mxCell id="UDwby6lAQDXfC08D9vF1-21" value="ROTEADOR FONTE" style="text;html=1;strokeColor=none;fillColor=none;align=center;verticalAlign=middle;whiteSpace=wrap;rounded=0;fontSize=16;fontStyle=1" vertex="1" parent="1">
          <mxGeometry x="315" y="250" width="170" height="30" as="geometry" />
        </mxCell>
        <mxCell id="UDwby6lAQDXfC08D9vF1-24" value="INCLUSÃO DE CABEÃALHO GRE&lt;br&gt;ENDEREÃOS DOS PACOTES = ENDEREÃO DO FIM DO TÃNEL" style="text;html=1;strokeColor=none;fillColor=none;align=center;verticalAlign=middle;whiteSpace=wrap;rounded=0;fontSize=16;fontStyle=1" vertex="1" parent="1">
          <mxGeometry x="-90" y="520" width="490" height="30" as="geometry" />
        </mxCell>
        <mxCell id="UDwby6lAQDXfC08D9vF1-25" value="RETIRADO CABEÃALHO GRE&lt;br&gt;ENDEREÃOS DOS PACOTES = ENDEREÃO DO ORIGINAL" style="text;html=1;strokeColor=none;fillColor=none;align=center;verticalAlign=middle;whiteSpace=wrap;rounded=0;fontSize=16;fontStyle=1" vertex="1" parent="1">
          <mxGeometry x="640" y="520" width="490" height="30" as="geometry" />
        </mxCell>
      </root>
    </mxGraphModel>
  </diagram>
</mxfile>
